<svg xmlns="http://www.w3.org/2000/svg" xmlns:xlink="http://www.w3.org/1999/xlink" width="500" zoomAndPan="magnify" viewBox="0 0 375 374.999991" height="500" preserveAspectRatio="xMidYMid meet" version="1.0"><defs><g/><clipPath id="c12b48679f"><path d="M 117.160156 77.265625 L 258 77.265625 L 258 219.765625 L 117.160156 219.765625 Z M 117.160156 77.265625 " clip-rule="nonzero"/></clipPath></defs><g clip-path="url(#c12b48679f)"><path fill="#0072ff" d="M 187.855469 134.007812 L 187.855469 160.523438 C 187.855469 161.1875 188.398438 161.726562 189.0625 161.726562 L 224.496094 161.726562 C 225.363281 161.726562 225.945312 162.617188 225.605469 163.414062 C 219.640625 177.304688 206.226562 187.265625 190.417969 188.242188 C 166.003906 189.75 145.535156 169.4375 146.863281 145.015625 C 148.035156 123.417969 165.972656 106.207031 187.855469 106.207031 C 199.746094 106.207031 210.9375 111.300781 218.75 120.222656 C 219.183594 120.714844 219.921875 120.773438 220.425781 120.359375 L 240.859375 103.453125 C 241.382812 103.019531 241.441406 102.246094 241 101.730469 C 227.671875 86.179688 208.375 77.285156 187.855469 77.285156 C 169.164062 77.285156 151.589844 84.5625 138.371094 97.78125 C 125.15625 110.996094 117.875 128.570312 117.875 147.265625 C 117.875 159.460938 120.976562 171.179688 126.800781 181.523438 C 126.957031 181.796875 127 182.117188 126.917969 182.421875 L 117.40625 218.335938 C 117.164062 219.25 118.015625 220.070312 118.921875 219.796875 L 154.265625 209.09375 C 154.566406 209 154.894531 209.035156 155.175781 209.183594 C 165.128906 214.449219 176.277344 217.246094 187.855469 217.246094 C 206.550781 217.246094 224.125 209.96875 237.34375 196.75 C 250.558594 183.53125 257.839844 165.957031 257.839844 147.265625 L 257.839844 134.007812 C 257.839844 133.34375 257.300781 132.800781 256.632812 132.800781 L 189.0625 132.800781 C 188.398438 132.800781 187.855469 133.34375 187.855469 134.007812 " fill-opacity="1" fill-rule="nonzero"/></g><g fill="#1f1b1b" fill-opacity="1"><g transform="translate(122.547679, 267.999206)"><g><path d="M 22.84375 -21.71875 L 9.625 -21.71875 L 9.625 -15.4375 L 21.796875 -15.4375 L 21.796875 -10 L 9.625 -10 L 9.625 0 L 2.71875 0 L 2.71875 -27.140625 L 22.84375 -27.140625 Z M 22.84375 -21.71875 "/></g></g></g><g fill="#1f1b1b" fill-opacity="1"><g transform="translate(151.900596, 267.999206)"><g><path d="M 15.59375 -27.375 C 19.800781 -27.375 23.300781 -26.0625 26.09375 -23.4375 C 28.882812 -20.8125 30.28125 -17.535156 30.28125 -13.609375 C 30.28125 -9.648438 28.878906 -6.335938 26.078125 -3.671875 C 23.273438 -1.015625 19.78125 0.3125 15.59375 0.3125 C 11.40625 0.3125 7.914062 -1.007812 5.125 -3.65625 C 2.332031 -6.3125 0.9375 -9.628906 0.9375 -13.609375 C 0.9375 -17.566406 2.332031 -20.847656 5.125 -23.453125 C 7.914062 -26.066406 11.40625 -27.375 15.59375 -27.375 Z M 15.671875 -21.59375 C 13.546875 -21.59375 11.734375 -20.820312 10.234375 -19.28125 C 8.734375 -17.75 7.984375 -15.84375 7.984375 -13.5625 C 7.984375 -11.289062 8.738281 -9.375 10.25 -7.8125 C 11.769531 -6.25 13.578125 -5.46875 15.671875 -5.46875 C 17.765625 -5.46875 19.539062 -6.25 21 -7.8125 C 22.457031 -9.375 23.1875 -11.289062 23.1875 -13.5625 C 23.1875 -15.84375 22.457031 -17.75 21 -19.28125 C 19.539062 -20.820312 17.765625 -21.59375 15.671875 -21.59375 Z M 15.671875 -21.59375 "/></g></g></g><g fill="#1f1b1b" fill-opacity="1"><g transform="translate(189.047196, 267.999206)"><g><path d="M 27.140625 -27.140625 L 27.140625 -11.40625 C 27.140625 -7.8125 26.023438 -4.957031 23.796875 -2.84375 C 21.578125 -0.738281 18.570312 0.3125 14.78125 0.3125 C 10.945312 0.3125 7.898438 -0.738281 5.640625 -2.84375 C 3.378906 -4.957031 2.25 -7.8125 2.25 -11.40625 L 2.25 -27.140625 L 9.15625 -27.140625 L 9.15625 -11.40625 C 9.15625 -9.59375 9.675781 -8.148438 10.71875 -7.078125 C 11.769531 -6.003906 13.132812 -5.46875 14.8125 -5.46875 C 16.46875 -5.46875 17.789062 -5.992188 18.78125 -7.046875 C 19.78125 -8.109375 20.28125 -9.5625 20.28125 -11.40625 L 20.28125 -27.140625 Z M 27.140625 -27.140625 "/></g></g></g><g fill="#1f1b1b" fill-opacity="1"><g transform="translate(224.371392, 267.999206)"><g><path d="M 19.078125 0 L 15.046875 -7.640625 L 9.625 -7.640625 L 9.625 0 L 2.71875 0 L 2.71875 -27.140625 L 14.859375 -27.140625 C 18.453125 -27.140625 21.226562 -26.316406 23.1875 -24.671875 C 25.15625 -23.035156 26.140625 -20.707031 26.140625 -17.6875 C 26.140625 -13.5 24.5 -10.585938 21.21875 -8.953125 L 26.921875 0 Z M 9.625 -13.0625 L 14.859375 -13.0625 C 16.359375 -13.0625 17.519531 -13.4375 18.34375 -14.1875 C 19.164062 -14.9375 19.578125 -16.023438 19.578125 -17.453125 C 19.578125 -18.847656 19.164062 -19.90625 18.34375 -20.625 C 17.519531 -21.351562 16.359375 -21.71875 14.859375 -21.71875 L 9.625 -21.71875 Z M 9.625 -13.0625 "/></g></g></g><g fill="#000000" fill-opacity="1"><g transform="translate(158.513313, 295.511025)"><g><path d="M 1.328125 0 C 1.171875 0 1.0625 -0.0234375 1 -0.078125 C 0.945312 -0.140625 0.921875 -0.25 0.921875 -0.40625 L 0.921875 -8.078125 C 0.921875 -8.234375 0.945312 -8.335938 1 -8.390625 C 1.0625 -8.453125 1.171875 -8.484375 1.328125 -8.484375 L 4.65625 -8.484375 C 5.414062 -8.484375 6.007812 -8.289062 6.4375 -7.90625 C 6.875 -7.519531 7.09375 -6.96875 7.09375 -6.25 C 7.09375 -5.40625 6.789062 -4.804688 6.1875 -4.453125 L 6.1875 -4.40625 C 6.570312 -4.269531 6.867188 -4.023438 7.078125 -3.671875 C 7.296875 -3.316406 7.40625 -2.867188 7.40625 -2.328125 C 7.40625 -1.828125 7.289062 -1.398438 7.0625 -1.046875 C 6.832031 -0.703125 6.515625 -0.441406 6.109375 -0.265625 C 5.703125 -0.0859375 5.238281 0 4.71875 0 Z M 2.421875 -4.984375 L 4.453125 -4.984375 C 5.191406 -4.984375 5.5625 -5.332031 5.5625 -6.03125 C 5.5625 -6.738281 5.191406 -7.09375 4.453125 -7.09375 L 2.421875 -7.09375 Z M 2.421875 -1.40625 L 4.671875 -1.40625 C 5.441406 -1.40625 5.828125 -1.769531 5.828125 -2.5 C 5.828125 -3.25 5.441406 -3.625 4.671875 -3.625 L 2.421875 -3.625 Z M 2.421875 -1.40625 "/></g></g></g><g fill="#000000" fill-opacity="1"><g transform="translate(167.89752, 295.511025)"><g><path d="M 3.578125 0 C 3.429688 0 3.328125 -0.0234375 3.265625 -0.078125 C 3.203125 -0.140625 3.171875 -0.25 3.171875 -0.40625 L 3.171875 -3.375 L 0.265625 -8.078125 C 0.203125 -8.191406 0.179688 -8.285156 0.203125 -8.359375 C 0.222656 -8.441406 0.3125 -8.484375 0.46875 -8.484375 L 1.296875 -8.484375 C 1.535156 -8.484375 1.703125 -8.46875 1.796875 -8.4375 C 1.898438 -8.40625 2 -8.300781 2.09375 -8.125 L 3.9375 -4.90625 L 5.828125 -8.125 C 5.910156 -8.300781 6 -8.40625 6.09375 -8.4375 C 6.195312 -8.46875 6.367188 -8.484375 6.609375 -8.484375 L 7.390625 -8.484375 C 7.535156 -8.484375 7.617188 -8.441406 7.640625 -8.359375 C 7.671875 -8.285156 7.65625 -8.191406 7.59375 -8.078125 L 4.671875 -3.34375 L 4.671875 -0.40625 C 4.671875 -0.25 4.640625 -0.140625 4.578125 -0.078125 C 4.523438 -0.0234375 4.421875 0 4.265625 0 Z M 3.578125 0 "/></g></g></g><g fill="#000000" fill-opacity="1"><g transform="translate(177.198059, 295.511025)"><g/></g></g><g fill="#000000" fill-opacity="1"><g transform="translate(181.25115, 295.511025)"><g><path d="M 4.09375 0.171875 C 3 0.171875 2.15625 -0.101562 1.5625 -0.65625 C 0.96875 -1.21875 0.671875 -1.976562 0.671875 -2.9375 L 0.671875 -5.5625 C 0.671875 -6.519531 0.960938 -7.273438 1.546875 -7.828125 C 2.140625 -8.390625 2.988281 -8.671875 4.09375 -8.671875 C 4.96875 -8.671875 5.671875 -8.5 6.203125 -8.15625 C 6.734375 -7.8125 7.113281 -7.316406 7.34375 -6.671875 C 7.394531 -6.523438 7.398438 -6.414062 7.359375 -6.34375 C 7.316406 -6.269531 7.226562 -6.203125 7.09375 -6.140625 L 6.4375 -5.921875 C 6.289062 -5.878906 6.179688 -5.867188 6.109375 -5.890625 C 6.035156 -5.921875 5.972656 -6.015625 5.921875 -6.171875 C 5.785156 -6.535156 5.570312 -6.804688 5.28125 -6.984375 C 4.988281 -7.171875 4.59375 -7.265625 4.09375 -7.265625 C 3.476562 -7.265625 3.003906 -7.117188 2.671875 -6.828125 C 2.335938 -6.535156 2.171875 -6.113281 2.171875 -5.5625 L 2.171875 -2.921875 C 2.171875 -2.378906 2.335938 -1.957031 2.671875 -1.65625 C 3.003906 -1.363281 3.476562 -1.21875 4.09375 -1.21875 C 4.59375 -1.21875 4.988281 -1.3125 5.28125 -1.5 C 5.570312 -1.6875 5.785156 -1.960938 5.921875 -2.328125 C 5.984375 -2.484375 6.050781 -2.578125 6.125 -2.609375 C 6.195312 -2.648438 6.300781 -2.640625 6.4375 -2.578125 L 7.09375 -2.359375 C 7.226562 -2.296875 7.316406 -2.226562 7.359375 -2.15625 C 7.398438 -2.082031 7.394531 -1.972656 7.34375 -1.828125 C 7.125 -1.179688 6.75 -0.6875 6.21875 -0.34375 C 5.6875 0 4.976562 0.171875 4.09375 0.171875 Z M 4.09375 0.171875 "/></g></g></g><g fill="#000000" fill-opacity="1"><g transform="translate(190.503877, 295.511025)"><g><path d="M 3.84375 0.171875 C 2.914062 0.171875 2.195312 0.00390625 1.6875 -0.328125 C 1.175781 -0.671875 0.796875 -1.164062 0.546875 -1.8125 C 0.503906 -1.96875 0.5 -2.082031 0.53125 -2.15625 C 0.5625 -2.226562 0.65625 -2.289062 0.8125 -2.34375 L 1.453125 -2.578125 C 1.597656 -2.628906 1.707031 -2.632812 1.78125 -2.59375 C 1.851562 -2.5625 1.914062 -2.472656 1.96875 -2.328125 C 2.132812 -1.984375 2.367188 -1.710938 2.671875 -1.515625 C 2.984375 -1.316406 3.375 -1.21875 3.84375 -1.21875 C 4.445312 -1.21875 4.910156 -1.316406 5.234375 -1.515625 C 5.566406 -1.710938 5.734375 -2.03125 5.734375 -2.46875 C 5.734375 -2.738281 5.644531 -2.945312 5.46875 -3.09375 C 5.300781 -3.25 5.070312 -3.359375 4.78125 -3.421875 C 4.5 -3.492188 4.1875 -3.546875 3.84375 -3.578125 C 3.476562 -3.617188 3.101562 -3.671875 2.71875 -3.734375 C 2.34375 -3.804688 1.992188 -3.921875 1.671875 -4.078125 C 1.347656 -4.242188 1.085938 -4.484375 0.890625 -4.796875 C 0.703125 -5.109375 0.609375 -5.523438 0.609375 -6.046875 C 0.609375 -6.554688 0.726562 -7.003906 0.96875 -7.390625 C 1.21875 -7.785156 1.585938 -8.097656 2.078125 -8.328125 C 2.566406 -8.554688 3.171875 -8.671875 3.890625 -8.671875 C 4.734375 -8.671875 5.394531 -8.515625 5.875 -8.203125 C 6.351562 -7.898438 6.734375 -7.453125 7.015625 -6.859375 C 7.085938 -6.722656 7.101562 -6.613281 7.0625 -6.53125 C 7.03125 -6.445312 6.941406 -6.375 6.796875 -6.3125 L 6.125 -6.03125 C 6 -5.96875 5.898438 -5.953125 5.828125 -5.984375 C 5.753906 -6.015625 5.6875 -6.097656 5.625 -6.234375 C 5.457031 -6.546875 5.242188 -6.789062 4.984375 -6.96875 C 4.722656 -7.144531 4.359375 -7.234375 3.890625 -7.234375 C 2.722656 -7.234375 2.140625 -6.863281 2.140625 -6.125 C 2.140625 -5.84375 2.234375 -5.628906 2.421875 -5.484375 C 2.617188 -5.335938 2.875 -5.226562 3.1875 -5.15625 C 3.507812 -5.09375 3.847656 -5.039062 4.203125 -5 C 4.554688 -4.957031 4.910156 -4.894531 5.265625 -4.8125 C 5.628906 -4.738281 5.957031 -4.613281 6.25 -4.4375 C 6.550781 -4.269531 6.789062 -4.03125 6.96875 -3.71875 C 7.15625 -3.40625 7.25 -3 7.25 -2.5 C 7.25 -1.695312 6.953125 -1.050781 6.359375 -0.5625 C 5.773438 -0.0703125 4.9375 0.171875 3.84375 0.171875 Z M 3.84375 0.171875 "/></g></g></g><g fill="#000000" fill-opacity="1"><g transform="translate(199.684881, 295.511025)"><g><path d="M 3.140625 0 C 2.992188 0 2.890625 -0.0234375 2.828125 -0.078125 C 2.765625 -0.140625 2.734375 -0.25 2.734375 -0.40625 L 2.734375 -7.09375 L 0.65625 -7.09375 C 0.507812 -7.09375 0.40625 -7.117188 0.34375 -7.171875 C 0.28125 -7.234375 0.25 -7.34375 0.25 -7.5 L 0.25 -8.078125 C 0.25 -8.234375 0.28125 -8.335938 0.34375 -8.390625 C 0.40625 -8.453125 0.507812 -8.484375 0.65625 -8.484375 L 6.3125 -8.484375 C 6.46875 -8.484375 6.570312 -8.453125 6.625 -8.390625 C 6.6875 -8.335938 6.71875 -8.234375 6.71875 -8.078125 L 6.71875 -7.5 C 6.71875 -7.34375 6.6875 -7.234375 6.625 -7.171875 C 6.570312 -7.117188 6.46875 -7.09375 6.3125 -7.09375 L 4.234375 -7.09375 L 4.234375 -0.40625 C 4.234375 -0.25 4.203125 -0.140625 4.140625 -0.078125 C 4.085938 -0.0234375 3.984375 0 3.828125 0 Z M 3.140625 0 "/></g></g></g><g fill="#000000" fill-opacity="1"><g transform="translate(208.088927, 295.511025)"><g><path d="M 4.203125 0.171875 C 3.097656 0.171875 2.265625 -0.101562 1.703125 -0.65625 C 1.140625 -1.21875 0.859375 -1.972656 0.859375 -2.921875 L 0.859375 -8.078125 C 0.859375 -8.234375 0.890625 -8.335938 0.953125 -8.390625 C 1.015625 -8.453125 1.117188 -8.484375 1.265625 -8.484375 L 1.953125 -8.484375 C 2.097656 -8.484375 2.203125 -8.453125 2.265625 -8.390625 C 2.328125 -8.335938 2.359375 -8.234375 2.359375 -8.078125 L 2.359375 -2.90625 C 2.359375 -2.375 2.507812 -1.957031 2.8125 -1.65625 C 3.125 -1.363281 3.585938 -1.21875 4.203125 -1.21875 C 4.804688 -1.21875 5.257812 -1.363281 5.5625 -1.65625 C 5.875 -1.957031 6.03125 -2.375 6.03125 -2.90625 L 6.03125 -8.078125 C 6.03125 -8.234375 6.0625 -8.335938 6.125 -8.390625 C 6.1875 -8.453125 6.289062 -8.484375 6.4375 -8.484375 L 7.140625 -8.484375 C 7.285156 -8.484375 7.390625 -8.453125 7.453125 -8.390625 C 7.515625 -8.335938 7.546875 -8.234375 7.546875 -8.078125 L 7.546875 -2.921875 C 7.546875 -1.972656 7.257812 -1.21875 6.6875 -0.65625 C 6.125 -0.101562 5.296875 0.171875 4.203125 0.171875 Z M 4.203125 0.171875 "/></g></g></g></svg>