<svg xmlns="http://www.w3.org/2000/svg" xmlns:xlink="http://www.w3.org/1999/xlink" width="500" zoomAndPan="magnify" viewBox="0 0 375 374.999991" height="500" preserveAspectRatio="xMidYMid meet" version="1.0"><defs><g/><clipPath id="b8f3600191"><path d="M 79.105469 31.121094 L 295.855469 31.121094 L 295.855469 250.871094 L 79.105469 250.871094 Z M 79.105469 31.121094 " clip-rule="nonzero"/></clipPath></defs><g clip-path="url(#b8f3600191)"><path fill="#0072ff" d="M 188.054688 118.566406 L 188.054688 159.425781 C 188.054688 160.453125 188.886719 161.285156 189.914062 161.285156 L 244.519531 161.285156 C 245.855469 161.285156 246.753906 162.652344 246.226562 163.882812 C 237.035156 185.285156 216.359375 200.640625 192 202.144531 C 154.378906 204.46875 122.835938 173.167969 124.878906 135.527344 C 126.683594 102.246094 154.332031 75.722656 188.054688 75.722656 C 206.375 75.722656 223.621094 83.574219 235.664062 97.320312 C 236.328125 98.078125 237.472656 98.171875 238.246094 97.53125 L 269.738281 71.476562 C 270.539062 70.8125 270.632812 69.621094 269.953125 68.828125 C 249.410156 44.855469 219.671875 31.148438 188.054688 31.148438 C 159.25 31.148438 132.164062 42.367188 111.796875 62.738281 C 91.425781 83.105469 80.207031 110.1875 80.207031 138.996094 C 80.207031 157.789062 84.988281 175.847656 93.964844 191.789062 C 94.203125 192.210938 94.265625 192.707031 94.144531 193.175781 L 79.484375 248.519531 C 79.113281 249.925781 80.425781 251.195312 81.820312 250.773438 L 136.285156 234.277344 C 136.753906 234.136719 137.257812 234.183594 137.691406 234.414062 C 153.027344 242.535156 170.207031 246.84375 188.054688 246.84375 C 216.863281 246.84375 243.945312 235.625 264.316406 215.253906 C 284.683594 194.882812 295.902344 167.804688 295.902344 138.996094 L 295.902344 118.566406 C 295.902344 117.539062 295.070312 116.707031 294.042969 116.707031 L 189.914062 116.707031 C 188.886719 116.707031 188.054688 117.539062 188.054688 118.566406 " fill-opacity="1" fill-rule="nonzero"/></g><g fill="#1f1b1b" fill-opacity="1"><g transform="translate(87.407834, 325.044446)"><g><path d="M 35.1875 -33.453125 L 14.8125 -33.453125 L 14.8125 -23.78125 L 33.578125 -23.78125 L 33.578125 -15.421875 L 14.8125 -15.421875 L 14.8125 0 L 4.1875 0 L 4.1875 -41.828125 L 35.1875 -41.828125 Z M 35.1875 -33.453125 "/></g></g></g><g fill="#1f1b1b" fill-opacity="1"><g transform="translate(132.640968, 325.044446)"><g><path d="M 24.015625 -42.1875 C 30.515625 -42.1875 35.914062 -40.160156 40.21875 -36.109375 C 44.519531 -32.066406 46.671875 -27.019531 46.671875 -20.96875 C 46.671875 -14.875 44.507812 -9.773438 40.1875 -5.671875 C 35.863281 -1.566406 30.472656 0.484375 24.015625 0.484375 C 17.566406 0.484375 12.191406 -1.554688 7.890625 -5.640625 C 3.585938 -9.722656 1.4375 -14.832031 1.4375 -20.96875 C 1.4375 -27.0625 3.585938 -32.117188 7.890625 -36.140625 C 12.191406 -40.171875 17.566406 -42.1875 24.015625 -42.1875 Z M 24.140625 -33.28125 C 20.867188 -33.28125 18.078125 -32.09375 15.765625 -29.71875 C 13.460938 -27.351562 12.3125 -24.414062 12.3125 -20.90625 C 12.3125 -17.40625 13.472656 -14.445312 15.796875 -12.03125 C 18.128906 -9.625 20.910156 -8.421875 24.140625 -8.421875 C 27.367188 -8.421875 30.109375 -9.625 32.359375 -12.03125 C 34.609375 -14.445312 35.734375 -17.40625 35.734375 -20.90625 C 35.734375 -24.414062 34.609375 -27.351562 32.359375 -29.71875 C 30.109375 -32.09375 27.367188 -33.28125 24.140625 -33.28125 Z M 24.140625 -33.28125 "/></g></g></g><g fill="#1f1b1b" fill-opacity="1"><g transform="translate(189.884243, 325.044446)"><g><path d="M 41.828125 -41.828125 L 41.828125 -17.5625 C 41.828125 -12.03125 40.113281 -7.640625 36.6875 -4.390625 C 33.257812 -1.140625 28.617188 0.484375 22.765625 0.484375 C 16.867188 0.484375 12.175781 -1.140625 8.6875 -4.390625 C 5.207031 -7.640625 3.46875 -12.03125 3.46875 -17.5625 L 3.46875 -41.828125 L 14.09375 -41.828125 L 14.09375 -17.5625 C 14.09375 -14.78125 14.898438 -12.5625 16.515625 -10.90625 C 18.128906 -9.25 20.234375 -8.421875 22.828125 -8.421875 C 25.378906 -8.421875 27.421875 -9.238281 28.953125 -10.875 C 30.484375 -12.507812 31.25 -14.738281 31.25 -17.5625 L 31.25 -41.828125 Z M 41.828125 -41.828125 "/></g></g></g><g fill="#1f1b1b" fill-opacity="1"><g transform="translate(244.319176, 325.044446)"><g><path d="M 29.390625 0 L 23.1875 -11.765625 L 14.8125 -11.765625 L 14.8125 0 L 4.1875 0 L 4.1875 -41.828125 L 22.890625 -41.828125 C 28.421875 -41.828125 32.695312 -40.5625 35.71875 -38.03125 C 38.75 -35.5 40.265625 -31.90625 40.265625 -27.25 C 40.265625 -20.789062 37.738281 -16.304688 32.6875 -13.796875 L 41.46875 0 Z M 14.8125 -20.140625 L 22.890625 -20.140625 C 25.191406 -20.140625 26.976562 -20.710938 28.25 -21.859375 C 29.53125 -23.015625 30.171875 -24.691406 30.171875 -26.890625 C 30.171875 -29.035156 29.53125 -30.664062 28.25 -31.78125 C 26.976562 -32.894531 25.191406 -33.453125 22.890625 -33.453125 L 14.8125 -33.453125 Z M 14.8125 -20.140625 "/></g></g></g></svg>